# xmcd
#
# Track frame offsets:
#	150
#	10810
#	23714
#	36235
#	48704
#	62644
#	77434
#	91287
#	103904
#	119445
#	130854
#	142478
#	155651
#	166805
#	182309
#	193545
#	205840
#	219479
#	230699
#	242175
#
# Disc length: 3386 seconds
#
# Revision: 0
# Processed by: cddbd v1.5.2PL0 Copyright (c) Steve Scherf et al.
# Submitted via: EasyCDDAExtractor 16.0.6.1
#
DISCID=190d3814
DTITLE=Μουφλουζέλης Γιώργος - Ρεμπέτικα πορτρέτα 2-5 Μουφλουζέλης Γιώργος
DYEAR=2010
DGENRE=Ρεμπέτικη
TTITLE0=Μουφλουζέλης Γιώργος - Εγώ δεν έχω βγάλει το σχολείο [Γ. Μουφλουζέλης]
TTITLE1=Μουφλουζέλης Γιώργος - Ζούλα σε μιά βάρκα μπήκα [Γ. Μπάτης, διασκ.Σαρ.
TTITLE1=Κοτομάτης]
TTITLE2=Μουφλουζέλης Γιώργος - Ο ψαράς μέσα στη χώρα [Γ. Μουφλουζέλης]
TTITLE3=Μουφλουζέλης Γιώργος - Τι σε νοιάζει εσένανε [Γ. Μουφλουζέλης]
TTITLE4=Μουφλουζέλης Γιώργος - Το σακάκι [Γ. Μουφλουζέλης]
TTITLE5=Μουφλουζέλης Γιώργος-Διαμαντή Σ.-Δερβενιώτης Θ. - Αγκαζέ νά 'χω βαπόρι
TTITLE5=[Γ. Μουφλουζέλης-Σ. Μπέλλου]
TTITLE6=Μουφλουζέλης Γιώργος - Πού 'σουν, μάγκα, το χειμώνα [Γ. Μουφλουζέλης]
TTITLE7=Μουφλουζέλης Γιώργος - Βάρκα μου μπογιατισμένη [Γ. Μουφλουζέλης]
TTITLE8=Μουφλουζέλης Γιώργος - Κάηκε μιά συνοικία [παραδ., διασκ. Γ. Μουφλουζέ
TTITLE8=λης]
TTITLE9=Μουφλουζέλης Γιώργος - Ο τρελλάκιας [Γ. Μουφλουζέλης-Ν. Μάθεσης]
TTITLE10=Μουφλουζέλης Γιώργος - Καλέ ντουντού [Γ. Μουφλουζέλης]
TTITLE11=Μουφλουζέλης Γιώργος-Διαμαντή Σοφία - Δίκιο είχαν οι αρχαίοι [Γ. Μουφ
TTITLE11=λουζέλης]
TTITLE12=Μουφλουζέλης Γιώργος - Στους απάνω μαχαλάδες [Θ. Δερβενιώτης-Κ. Βίρβο
TTITLE12=ς]
TTITLE13=Μουφλουζέλης Γιώργος - Πρώτος δήμαρχος [Γ. Μουφλουζέλης]
TTITLE14=Μουφλουζέλης Γιώργος - Εγώ πήγαινα για ψάρια [Γ. Μουφλουζέλης]
TTITLE15=Μουφλουζέλης Γιώργος-Διαμαντή Σοφία - Φάτε, μάτια, ψάρια [Γ. Μουφλουζ
TTITLE15=έλης]
TTITLE16=Μουφλουζέλης Γιώργος - Ένας μπαγλαμάς μουρμούρης [Θ. Δερβενιώτης-Κ. Β
TTITLE16=ίρβος]
TTITLE17=Μουφλουζέλης Γιώργος-Διαμαντή Σοφία - Θα βρω γυναικομάνι [Γ. Μουφλουζ
TTITLE17=έλης]
TTITLE18=Μουφλουζέλης Γιώργος-Διαμαντή Σοφία - Λυγίσαν τα κλωνάρια μου [Γ. Μου
TTITLE18=φλουζέλης]
TTITLE19=Μουφλουζέλης Γιώργος - Άϊ στο καλο να πας [Γ. Μουφλουζέλης]
EXTD=
EXTT0=
EXTT1=
EXTT2=
EXTT3=
EXTT4=
EXTT5=
EXTT6=
EXTT7=
EXTT8=
EXTT9=
EXTT10=
EXTT11=
EXTT12=
EXTT13=
EXTT14=
EXTT15=
EXTT16=
EXTT17=
EXTT18=
EXTT19=
PLAYORDER=
